<mxfile host="app.diagrams.net" modified="2023-04-25T06:58:40.982Z" agent="Mozilla/5.0 (Windows NT 10.0; Win64; x64) AppleWebKit/537.36 (KHTML, like Gecko) Chrome/114.0.0.0 Safari/537.36 Edg/114.0.0.0" etag="y67c4JHmvi1VxQQJRzkZ" version="21.2.1" type="device">
  <diagram name="Trang-1" id="GD4-kPDrRfLCI1LLcg3I">
    <mxGraphModel dx="1876" dy="524" grid="0" gridSize="5" guides="1" tooltips="1" connect="1" arrows="1" fold="1" page="0" pageScale="1" pageWidth="3300" pageHeight="4681" math="0" shadow="0">
      <root>
        <mxCell id="0" />
        <mxCell id="1" parent="0" />
        <mxCell id="PWmVj4gfuMv3pSqDBdnq-3" value="" style="rounded=1;whiteSpace=wrap;html=1;absoluteArcSize=1;arcSize=14;strokeWidth=2;dashed=1;" parent="1" vertex="1">
          <mxGeometry x="225" y="70" width="282" height="276" as="geometry" />
        </mxCell>
        <mxCell id="CizXAPDU-vDg_hLWp3Cl-2" style="edgeStyle=orthogonalEdgeStyle;rounded=0;orthogonalLoop=1;jettySize=auto;html=1;entryX=0;entryY=0.5;entryDx=0;entryDy=0;" edge="1" parent="1" source="PWmVj4gfuMv3pSqDBdnq-1" target="CizXAPDU-vDg_hLWp3Cl-1">
          <mxGeometry relative="1" as="geometry">
            <Array as="points">
              <mxPoint x="291" y="272" />
            </Array>
          </mxGeometry>
        </mxCell>
        <mxCell id="PWmVj4gfuMv3pSqDBdnq-1" value="&lt;b&gt;&lt;font style=&quot;font-size: 11px;&quot;&gt;encoder&lt;/font&gt;&lt;/b&gt;" style="rounded=1;whiteSpace=wrap;html=1;absoluteArcSize=1;arcSize=14;strokeWidth=2;" parent="1" vertex="1">
          <mxGeometry x="275" y="154" width="67" height="67" as="geometry" />
        </mxCell>
        <mxCell id="PWmVj4gfuMv3pSqDBdnq-31" style="edgeStyle=orthogonalEdgeStyle;rounded=0;orthogonalLoop=1;jettySize=auto;html=1;entryX=0;entryY=0.5;entryDx=0;entryDy=0;exitX=1;exitY=0.25;exitDx=0;exitDy=0;" parent="1" source="PWmVj4gfuMv3pSqDBdnq-2" target="PWmVj4gfuMv3pSqDBdnq-13" edge="1">
          <mxGeometry relative="1" as="geometry">
            <Array as="points">
              <mxPoint x="492" y="172" />
              <mxPoint x="492" y="133" />
            </Array>
          </mxGeometry>
        </mxCell>
        <mxCell id="PWmVj4gfuMv3pSqDBdnq-32" style="edgeStyle=orthogonalEdgeStyle;rounded=0;orthogonalLoop=1;jettySize=auto;html=1;entryX=0;entryY=0.5;entryDx=0;entryDy=0;" parent="1" source="PWmVj4gfuMv3pSqDBdnq-2" target="PWmVj4gfuMv3pSqDBdnq-14" edge="1">
          <mxGeometry relative="1" as="geometry">
            <Array as="points">
              <mxPoint x="491" y="200" />
              <mxPoint x="491" y="242" />
            </Array>
          </mxGeometry>
        </mxCell>
        <mxCell id="PWmVj4gfuMv3pSqDBdnq-2" value="&lt;b&gt;&lt;font style=&quot;font-size: 10px;&quot;&gt;decoder&lt;/font&gt;&lt;/b&gt;" style="rounded=1;whiteSpace=wrap;html=1;absoluteArcSize=1;arcSize=14;strokeWidth=2;" parent="1" vertex="1">
          <mxGeometry x="410" y="155" width="66" height="66" as="geometry" />
        </mxCell>
        <mxCell id="PWmVj4gfuMv3pSqDBdnq-4" value="" style="verticalLabelPosition=bottom;verticalAlign=top;html=1;strokeWidth=2;shape=mxgraph.arrows2.arrow;dy=0.6;dx=40;notch=0;" parent="1" vertex="1">
          <mxGeometry x="4" y="91" width="219" height="55" as="geometry" />
        </mxCell>
        <mxCell id="PWmVj4gfuMv3pSqDBdnq-5" value="" style="verticalLabelPosition=bottom;verticalAlign=top;html=1;strokeWidth=2;shape=mxgraph.arrows2.arrow;dy=0.6;dx=40;notch=0;" parent="1" vertex="1">
          <mxGeometry x="5" y="160" width="219" height="55" as="geometry" />
        </mxCell>
        <mxCell id="PWmVj4gfuMv3pSqDBdnq-6" value="" style="verticalLabelPosition=bottom;verticalAlign=top;html=1;strokeWidth=2;shape=mxgraph.arrows2.arrow;dy=0.6;dx=40;notch=0;" parent="1" vertex="1">
          <mxGeometry x="5" y="233" width="219" height="55" as="geometry" />
        </mxCell>
        <mxCell id="PWmVj4gfuMv3pSqDBdnq-8" value="&lt;b&gt;input_text_i&lt;/b&gt;" style="text;html=1;strokeColor=none;fillColor=none;align=center;verticalAlign=middle;whiteSpace=wrap;rounded=0;" parent="1" vertex="1">
          <mxGeometry x="4" y="107" width="198" height="23" as="geometry" />
        </mxCell>
        <mxCell id="PWmVj4gfuMv3pSqDBdnq-9" value="&lt;b&gt;data_en_i&lt;/b&gt;" style="text;html=1;strokeColor=none;fillColor=none;align=center;verticalAlign=middle;whiteSpace=wrap;rounded=0;" parent="1" vertex="1">
          <mxGeometry x="5" y="176" width="198" height="23" as="geometry" />
        </mxCell>
        <mxCell id="PWmVj4gfuMv3pSqDBdnq-10" value="&lt;b&gt;clk_i&lt;/b&gt;" style="text;html=1;strokeColor=none;fillColor=none;align=center;verticalAlign=middle;whiteSpace=wrap;rounded=0;" parent="1" vertex="1">
          <mxGeometry x="5" y="249" width="198" height="23" as="geometry" />
        </mxCell>
        <mxCell id="PWmVj4gfuMv3pSqDBdnq-11" value="" style="verticalLabelPosition=bottom;verticalAlign=top;html=1;strokeWidth=2;shape=mxgraph.arrows2.arrow;dy=0.6;dx=40;notch=0;" parent="1" vertex="1">
          <mxGeometry x="508" y="105" width="219" height="55" as="geometry" />
        </mxCell>
        <mxCell id="PWmVj4gfuMv3pSqDBdnq-12" value="" style="verticalLabelPosition=bottom;verticalAlign=top;html=1;strokeWidth=2;shape=mxgraph.arrows2.arrow;dy=0.6;dx=40;notch=0;" parent="1" vertex="1">
          <mxGeometry x="508" y="214" width="219" height="55" as="geometry" />
        </mxCell>
        <mxCell id="PWmVj4gfuMv3pSqDBdnq-13" value="&lt;b&gt;done_o&lt;/b&gt;" style="text;html=1;strokeColor=none;fillColor=none;align=center;verticalAlign=middle;whiteSpace=wrap;rounded=0;" parent="1" vertex="1">
          <mxGeometry x="508" y="121" width="198" height="23" as="geometry" />
        </mxCell>
        <mxCell id="PWmVj4gfuMv3pSqDBdnq-14" value="&lt;b&gt;character&lt;/b&gt;" style="text;html=1;strokeColor=none;fillColor=none;align=center;verticalAlign=middle;whiteSpace=wrap;rounded=0;" parent="1" vertex="1">
          <mxGeometry x="508" y="230" width="198" height="23" as="geometry" />
        </mxCell>
        <mxCell id="PWmVj4gfuMv3pSqDBdnq-18" value="" style="endArrow=classic;html=1;rounded=0;exitX=1;exitY=0.5;exitDx=0;exitDy=0;exitPerimeter=0;entryX=0;entryY=0.25;entryDx=0;entryDy=0;" parent="1" source="PWmVj4gfuMv3pSqDBdnq-4" target="PWmVj4gfuMv3pSqDBdnq-1" edge="1">
          <mxGeometry width="50" height="50" relative="1" as="geometry">
            <mxPoint x="220" y="180" as="sourcePoint" />
            <mxPoint x="270" y="130" as="targetPoint" />
            <Array as="points">
              <mxPoint x="225" y="119" />
              <mxPoint x="225" y="171" />
            </Array>
          </mxGeometry>
        </mxCell>
        <mxCell id="PWmVj4gfuMv3pSqDBdnq-19" value="" style="endArrow=classic;html=1;rounded=0;exitX=1;exitY=0.5;exitDx=0;exitDy=0;exitPerimeter=0;entryX=0;entryY=0.5;entryDx=0;entryDy=0;" parent="1" source="PWmVj4gfuMv3pSqDBdnq-5" target="PWmVj4gfuMv3pSqDBdnq-1" edge="1">
          <mxGeometry width="50" height="50" relative="1" as="geometry">
            <mxPoint x="170" y="220" as="sourcePoint" />
            <mxPoint x="220" y="170" as="targetPoint" />
          </mxGeometry>
        </mxCell>
        <mxCell id="PWmVj4gfuMv3pSqDBdnq-20" value="" style="endArrow=classic;html=1;rounded=0;exitX=1;exitY=0.5;exitDx=0;exitDy=0;exitPerimeter=0;entryX=0;entryY=0.75;entryDx=0;entryDy=0;" parent="1" source="PWmVj4gfuMv3pSqDBdnq-6" target="PWmVj4gfuMv3pSqDBdnq-1" edge="1">
          <mxGeometry width="50" height="50" relative="1" as="geometry">
            <mxPoint x="150" y="260" as="sourcePoint" />
            <mxPoint x="200" y="210" as="targetPoint" />
            <Array as="points">
              <mxPoint x="225" y="261" />
              <mxPoint x="225" y="204" />
            </Array>
          </mxGeometry>
        </mxCell>
        <mxCell id="PWmVj4gfuMv3pSqDBdnq-21" value="" style="endArrow=classic;html=1;rounded=0;exitX=-0.008;exitY=0.883;exitDx=0;exitDy=0;entryX=0.25;entryY=1;entryDx=0;entryDy=0;exitPerimeter=0;" parent="1" edge="1" target="CizXAPDU-vDg_hLWp3Cl-1" source="PWmVj4gfuMv3pSqDBdnq-1">
          <mxGeometry width="50" height="50" relative="1" as="geometry">
            <mxPoint x="342.9999999999999" y="165.7500000000001" as="sourcePoint" />
            <mxPoint x="411" y="166" as="targetPoint" />
            <Array as="points">
              <mxPoint x="246" y="213" />
              <mxPoint x="246" y="311" />
              <mxPoint x="282" y="311" />
              <mxPoint x="344" y="311" />
            </Array>
          </mxGeometry>
        </mxCell>
        <mxCell id="PWmVj4gfuMv3pSqDBdnq-22" value="" style="endArrow=classic;html=1;rounded=0;exitX=1;exitY=0.25;exitDx=0;exitDy=0;fontStyle=0" parent="1" edge="1">
          <mxGeometry width="50" height="50" relative="1" as="geometry">
            <mxPoint x="343" y="185" as="sourcePoint" />
            <mxPoint x="411" y="185" as="targetPoint" />
          </mxGeometry>
        </mxCell>
        <mxCell id="PWmVj4gfuMv3pSqDBdnq-24" value="" style="endArrow=classic;html=1;rounded=0;exitX=1;exitY=0.25;exitDx=0;exitDy=0;entryX=0.5;entryY=0;entryDx=0;entryDy=0;" parent="1" edge="1" target="CizXAPDU-vDg_hLWp3Cl-1">
          <mxGeometry width="50" height="50" relative="1" as="geometry">
            <mxPoint x="343" y="203" as="sourcePoint" />
            <mxPoint x="411" y="203" as="targetPoint" />
            <Array as="points">
              <mxPoint x="374" y="203" />
            </Array>
          </mxGeometry>
        </mxCell>
        <mxCell id="PWmVj4gfuMv3pSqDBdnq-25" value="" style="endArrow=classic;html=1;rounded=0;exitX=1;exitY=0.25;exitDx=0;exitDy=0;entryX=0.339;entryY=-0.001;entryDx=0;entryDy=0;entryPerimeter=0;" parent="1" edge="1" target="CizXAPDU-vDg_hLWp3Cl-1">
          <mxGeometry width="50" height="50" relative="1" as="geometry">
            <mxPoint x="343" y="214" as="sourcePoint" />
            <mxPoint x="411" y="214" as="targetPoint" />
            <Array as="points">
              <mxPoint x="355" y="214" />
            </Array>
          </mxGeometry>
        </mxCell>
        <mxCell id="PWmVj4gfuMv3pSqDBdnq-26" value="&lt;font style=&quot;font-size: 8px;&quot;&gt;send_o&lt;/font&gt;" style="text;html=1;strokeColor=none;fillColor=none;align=center;verticalAlign=middle;whiteSpace=wrap;rounded=0;" parent="1" vertex="1">
          <mxGeometry x="306" y="314" width="40" height="10" as="geometry" />
        </mxCell>
        <mxCell id="PWmVj4gfuMv3pSqDBdnq-29" value="&lt;font style=&quot;font-size: 8px;&quot;&gt;length_check_o&lt;/font&gt;" style="text;html=1;strokeColor=none;fillColor=none;align=center;verticalAlign=middle;whiteSpace=wrap;rounded=0;" parent="1" vertex="1">
          <mxGeometry x="384" y="230" width="40" height="10" as="geometry" />
        </mxCell>
        <mxCell id="PWmVj4gfuMv3pSqDBdnq-30" value="&lt;font style=&quot;font-size: 8px;&quot;&gt;count_check_o&lt;/font&gt;" style="text;html=1;strokeColor=none;fillColor=none;align=center;verticalAlign=middle;whiteSpace=wrap;rounded=0;" parent="1" vertex="1">
          <mxGeometry x="306" y="230" width="40" height="10" as="geometry" />
        </mxCell>
        <mxCell id="PWmVj4gfuMv3pSqDBdnq-33" value="" style="rounded=1;whiteSpace=wrap;html=1;absoluteArcSize=1;arcSize=14;strokeWidth=2;dashed=1;" parent="1" vertex="1">
          <mxGeometry x="130" y="389" width="490" height="490" as="geometry" />
        </mxCell>
        <mxCell id="PWmVj4gfuMv3pSqDBdnq-34" value="" style="verticalLabelPosition=bottom;verticalAlign=top;html=1;strokeWidth=2;shape=mxgraph.arrows2.arrow;dy=0.6;dx=40;notch=0;" parent="1" vertex="1">
          <mxGeometry x="-90" y="440" width="219" height="55" as="geometry" />
        </mxCell>
        <mxCell id="PWmVj4gfuMv3pSqDBdnq-35" value="" style="verticalLabelPosition=bottom;verticalAlign=top;html=1;strokeWidth=2;shape=mxgraph.arrows2.arrow;dy=0.6;dx=40;notch=0;" parent="1" vertex="1">
          <mxGeometry x="-90" y="592" width="219" height="55" as="geometry" />
        </mxCell>
        <mxCell id="PWmVj4gfuMv3pSqDBdnq-36" value="" style="verticalLabelPosition=bottom;verticalAlign=top;html=1;strokeWidth=2;shape=mxgraph.arrows2.arrow;dy=0.6;dx=40;notch=0;" parent="1" vertex="1">
          <mxGeometry x="-90" y="763" width="219" height="55" as="geometry" />
        </mxCell>
        <mxCell id="PWmVj4gfuMv3pSqDBdnq-37" value="&lt;b&gt;input_text_i&amp;nbsp; (8bit each clock)&lt;/b&gt;" style="text;html=1;strokeColor=none;fillColor=none;align=center;verticalAlign=middle;whiteSpace=wrap;rounded=0;" parent="1" vertex="1">
          <mxGeometry x="-90" y="456" width="198" height="23" as="geometry" />
        </mxCell>
        <mxCell id="PWmVj4gfuMv3pSqDBdnq-38" value="&lt;b&gt;data_en_i&lt;/b&gt;" style="text;html=1;strokeColor=none;fillColor=none;align=center;verticalAlign=middle;whiteSpace=wrap;rounded=0;" parent="1" vertex="1">
          <mxGeometry x="-90" y="608" width="198" height="23" as="geometry" />
        </mxCell>
        <mxCell id="PWmVj4gfuMv3pSqDBdnq-39" value="&lt;b&gt;clk_i&lt;/b&gt;" style="text;html=1;strokeColor=none;fillColor=none;align=center;verticalAlign=middle;whiteSpace=wrap;rounded=0;" parent="1" vertex="1">
          <mxGeometry x="-90" y="779" width="198" height="23" as="geometry" />
        </mxCell>
        <mxCell id="PWmVj4gfuMv3pSqDBdnq-40" value="" style="verticalLabelPosition=bottom;verticalAlign=top;html=1;strokeWidth=2;shape=mxgraph.arrows2.arrow;dy=0.6;dx=40;notch=0;" parent="1" vertex="1">
          <mxGeometry x="620" y="387" width="219" height="55" as="geometry" />
        </mxCell>
        <mxCell id="PWmVj4gfuMv3pSqDBdnq-41" value="" style="verticalLabelPosition=bottom;verticalAlign=top;html=1;strokeWidth=2;shape=mxgraph.arrows2.arrow;dy=0.6;dx=40;notch=0;" parent="1" vertex="1">
          <mxGeometry x="620" y="546" width="219" height="55" as="geometry" />
        </mxCell>
        <mxCell id="PWmVj4gfuMv3pSqDBdnq-42" value="" style="verticalLabelPosition=bottom;verticalAlign=top;html=1;strokeWidth=2;shape=mxgraph.arrows2.arrow;dy=0.6;dx=40;notch=0;" parent="1" vertex="1">
          <mxGeometry x="620" y="710" width="219" height="55" as="geometry" />
        </mxCell>
        <mxCell id="PWmVj4gfuMv3pSqDBdnq-43" value="&lt;b&gt;send_o&lt;/b&gt;" style="text;html=1;strokeColor=none;fillColor=none;align=center;verticalAlign=middle;whiteSpace=wrap;rounded=0;" parent="1" vertex="1">
          <mxGeometry x="620" y="402" width="198" height="23" as="geometry" />
        </mxCell>
        <mxCell id="PWmVj4gfuMv3pSqDBdnq-44" value="&lt;b&gt;output_text_o&lt;/b&gt;" style="text;html=1;strokeColor=none;fillColor=none;align=center;verticalAlign=middle;whiteSpace=wrap;rounded=0;" parent="1" vertex="1">
          <mxGeometry x="620" y="562" width="198" height="23" as="geometry" />
        </mxCell>
        <mxCell id="PWmVj4gfuMv3pSqDBdnq-45" value="&lt;b&gt;count_check_o&lt;/b&gt;" style="text;html=1;strokeColor=none;fillColor=none;align=center;verticalAlign=middle;whiteSpace=wrap;rounded=0;" parent="1" vertex="1">
          <mxGeometry x="620" y="725" width="198" height="23" as="geometry" />
        </mxCell>
        <mxCell id="PWmVj4gfuMv3pSqDBdnq-46" value="" style="verticalLabelPosition=bottom;verticalAlign=top;html=1;strokeWidth=2;shape=mxgraph.arrows2.arrow;dy=0.6;dx=40;notch=0;" parent="1" vertex="1">
          <mxGeometry x="620" y="466" width="219" height="55" as="geometry" />
        </mxCell>
        <mxCell id="PWmVj4gfuMv3pSqDBdnq-47" value="&lt;b&gt;done_o&lt;/b&gt;" style="text;html=1;strokeColor=none;fillColor=none;align=center;verticalAlign=middle;whiteSpace=wrap;rounded=0;" parent="1" vertex="1">
          <mxGeometry x="620" y="482" width="198" height="23" as="geometry" />
        </mxCell>
        <mxCell id="PWmVj4gfuMv3pSqDBdnq-48" value="" style="verticalLabelPosition=bottom;verticalAlign=top;html=1;strokeWidth=2;shape=mxgraph.arrows2.arrow;dy=0.6;dx=40;notch=0;" parent="1" vertex="1">
          <mxGeometry x="620" y="627" width="219" height="55" as="geometry" />
        </mxCell>
        <mxCell id="PWmVj4gfuMv3pSqDBdnq-49" value="&lt;b&gt;length_check_o&lt;/b&gt;" style="text;html=1;strokeColor=none;fillColor=none;align=center;verticalAlign=middle;whiteSpace=wrap;rounded=0;" parent="1" vertex="1">
          <mxGeometry x="620" y="643" width="198" height="23" as="geometry" />
        </mxCell>
        <mxCell id="PWmVj4gfuMv3pSqDBdnq-55" style="edgeStyle=orthogonalEdgeStyle;rounded=0;orthogonalLoop=1;jettySize=auto;html=1;entryX=0;entryY=0.5;entryDx=0;entryDy=0;" parent="1" source="PWmVj4gfuMv3pSqDBdnq-50" target="PWmVj4gfuMv3pSqDBdnq-54" edge="1">
          <mxGeometry relative="1" as="geometry" />
        </mxCell>
        <mxCell id="PWmVj4gfuMv3pSqDBdnq-50" value="&lt;b style=&quot;font-size: 7px;&quot;&gt;GET DATA&lt;br&gt;&lt;br&gt;(255 CHARACTER)&lt;br&gt;&lt;/b&gt;" style="rounded=1;whiteSpace=wrap;html=1;absoluteArcSize=1;arcSize=14;strokeWidth=2;" parent="1" vertex="1">
          <mxGeometry x="229" y="451" width="69" height="69" as="geometry" />
        </mxCell>
        <mxCell id="PWmVj4gfuMv3pSqDBdnq-52" value="" style="endArrow=classic;html=1;rounded=0;exitX=1;exitY=0.5;exitDx=0;exitDy=0;exitPerimeter=0;entryX=0;entryY=0.75;entryDx=0;entryDy=0;" parent="1" source="PWmVj4gfuMv3pSqDBdnq-35" target="PWmVj4gfuMv3pSqDBdnq-50" edge="1">
          <mxGeometry width="50" height="50" relative="1" as="geometry">
            <mxPoint x="137" y="616" as="sourcePoint" />
            <mxPoint x="187" y="566" as="targetPoint" />
            <Array as="points">
              <mxPoint x="153" y="619" />
              <mxPoint x="153" y="503" />
            </Array>
          </mxGeometry>
        </mxCell>
        <mxCell id="PWmVj4gfuMv3pSqDBdnq-53" value="" style="endArrow=classic;html=1;rounded=0;exitX=1;exitY=0.5;exitDx=0;exitDy=0;exitPerimeter=0;" parent="1" source="PWmVj4gfuMv3pSqDBdnq-34" edge="1">
          <mxGeometry width="50" height="50" relative="1" as="geometry">
            <mxPoint x="157" y="502" as="sourcePoint" />
            <mxPoint x="228" y="468" as="targetPoint" />
          </mxGeometry>
        </mxCell>
        <mxCell id="PWmVj4gfuMv3pSqDBdnq-57" style="edgeStyle=orthogonalEdgeStyle;rounded=0;orthogonalLoop=1;jettySize=auto;html=1;entryX=0;entryY=0.5;entryDx=0;entryDy=0;" parent="1" source="PWmVj4gfuMv3pSqDBdnq-54" target="PWmVj4gfuMv3pSqDBdnq-56" edge="1">
          <mxGeometry relative="1" as="geometry" />
        </mxCell>
        <mxCell id="PWmVj4gfuMv3pSqDBdnq-54" value="&lt;b style=&quot;font-size: 7px;&quot;&gt;SORT and FORMAT&lt;br&gt;(ascending)&lt;br&gt;&lt;/b&gt;" style="rounded=1;whiteSpace=wrap;html=1;absoluteArcSize=1;arcSize=14;strokeWidth=2;" parent="1" vertex="1">
          <mxGeometry x="337" y="451" width="69" height="69" as="geometry" />
        </mxCell>
        <mxCell id="PWmVj4gfuMv3pSqDBdnq-59" style="edgeStyle=orthogonalEdgeStyle;rounded=0;orthogonalLoop=1;jettySize=auto;html=1;entryX=0.5;entryY=0;entryDx=0;entryDy=0;" parent="1" source="PWmVj4gfuMv3pSqDBdnq-56" target="PWmVj4gfuMv3pSqDBdnq-58" edge="1">
          <mxGeometry relative="1" as="geometry">
            <Array as="points">
              <mxPoint x="478" y="542" />
              <mxPoint x="263" y="542" />
            </Array>
          </mxGeometry>
        </mxCell>
        <mxCell id="PWmVj4gfuMv3pSqDBdnq-56" value="&lt;b style=&quot;font-size: 7px;&quot;&gt;BINARY TREE&lt;br&gt;&lt;/b&gt;" style="rounded=1;whiteSpace=wrap;html=1;absoluteArcSize=1;arcSize=14;strokeWidth=2;" parent="1" vertex="1">
          <mxGeometry x="444" y="451" width="69" height="69" as="geometry" />
        </mxCell>
        <mxCell id="PWmVj4gfuMv3pSqDBdnq-62" style="edgeStyle=orthogonalEdgeStyle;rounded=0;orthogonalLoop=1;jettySize=auto;html=1;entryX=0;entryY=0.5;entryDx=0;entryDy=0;" parent="1" source="PWmVj4gfuMv3pSqDBdnq-58" target="PWmVj4gfuMv3pSqDBdnq-60" edge="1">
          <mxGeometry relative="1" as="geometry" />
        </mxCell>
        <mxCell id="PWmVj4gfuMv3pSqDBdnq-58" value="&lt;b style=&quot;font-size: 7px;&quot;&gt;CREATE &lt;br&gt;PAIR LIST&lt;br&gt;&lt;/b&gt;" style="rounded=1;whiteSpace=wrap;html=1;absoluteArcSize=1;arcSize=14;strokeWidth=2;" parent="1" vertex="1">
          <mxGeometry x="229" y="566" width="69" height="69" as="geometry" />
        </mxCell>
        <mxCell id="PWmVj4gfuMv3pSqDBdnq-64" style="edgeStyle=orthogonalEdgeStyle;rounded=0;orthogonalLoop=1;jettySize=auto;html=1;entryX=0;entryY=0.5;entryDx=0;entryDy=0;" parent="1" source="PWmVj4gfuMv3pSqDBdnq-60" target="PWmVj4gfuMv3pSqDBdnq-63" edge="1">
          <mxGeometry relative="1" as="geometry" />
        </mxCell>
        <mxCell id="PWmVj4gfuMv3pSqDBdnq-60" value="&lt;b style=&quot;font-size: 7px;&quot;&gt;SORT and FORMAT&lt;br&gt;(ascending)&lt;br&gt;&lt;/b&gt;" style="rounded=1;whiteSpace=wrap;html=1;absoluteArcSize=1;arcSize=14;strokeWidth=2;" parent="1" vertex="1">
          <mxGeometry x="337" y="566" width="69" height="69" as="geometry" />
        </mxCell>
        <mxCell id="PWmVj4gfuMv3pSqDBdnq-67" style="edgeStyle=orthogonalEdgeStyle;rounded=0;orthogonalLoop=1;jettySize=auto;html=1;" parent="1" source="PWmVj4gfuMv3pSqDBdnq-63" target="PWmVj4gfuMv3pSqDBdnq-65" edge="1">
          <mxGeometry relative="1" as="geometry">
            <Array as="points">
              <mxPoint x="479" y="661" />
              <mxPoint x="371" y="661" />
            </Array>
          </mxGeometry>
        </mxCell>
        <mxCell id="PWmVj4gfuMv3pSqDBdnq-63" value="&lt;b style=&quot;font-size: 7px;&quot;&gt;ENCODING&lt;br&gt;&lt;/b&gt;" style="rounded=1;whiteSpace=wrap;html=1;absoluteArcSize=1;arcSize=14;strokeWidth=2;" parent="1" vertex="1">
          <mxGeometry x="444" y="566" width="69" height="69" as="geometry" />
        </mxCell>
        <mxCell id="CizXAPDU-vDg_hLWp3Cl-82" style="edgeStyle=orthogonalEdgeStyle;rounded=0;orthogonalLoop=1;jettySize=auto;html=1;entryX=0;entryY=0.5;entryDx=0;entryDy=0;" edge="1" parent="1" source="PWmVj4gfuMv3pSqDBdnq-65" target="CizXAPDU-vDg_hLWp3Cl-26">
          <mxGeometry relative="1" as="geometry">
            <Array as="points">
              <mxPoint x="372" y="802" />
              <mxPoint x="513" y="802" />
            </Array>
          </mxGeometry>
        </mxCell>
        <mxCell id="CizXAPDU-vDg_hLWp3Cl-83" style="edgeStyle=orthogonalEdgeStyle;rounded=0;orthogonalLoop=1;jettySize=auto;html=1;entryX=0;entryY=0.5;entryDx=0;entryDy=0;" edge="1" parent="1" source="PWmVj4gfuMv3pSqDBdnq-65" target="CizXAPDU-vDg_hLWp3Cl-24">
          <mxGeometry relative="1" as="geometry">
            <Array as="points">
              <mxPoint x="351" y="867" />
            </Array>
          </mxGeometry>
        </mxCell>
        <mxCell id="PWmVj4gfuMv3pSqDBdnq-65" value="&lt;b style=&quot;font-size: 7px;&quot;&gt;SAVE VALUE IN EACH TABLE&lt;br&gt;&lt;/b&gt;" style="rounded=1;whiteSpace=wrap;html=1;absoluteArcSize=1;arcSize=14;strokeWidth=2;" parent="1" vertex="1">
          <mxGeometry x="337" y="690" width="69" height="69" as="geometry" />
        </mxCell>
        <mxCell id="PWmVj4gfuMv3pSqDBdnq-68" value="" style="endArrow=classic;html=1;rounded=0;exitX=1.007;exitY=0.146;exitDx=0;exitDy=0;exitPerimeter=0;entryX=0;entryY=0.5;entryDx=0;entryDy=0;" parent="1" target="PWmVj4gfuMv3pSqDBdnq-43" edge="1">
          <mxGeometry width="50" height="50" relative="1" as="geometry">
            <mxPoint x="406.48299999999995" y="697.0740000000001" as="sourcePoint" />
            <mxPoint x="461" y="697" as="targetPoint" />
            <Array as="points">
              <mxPoint x="543" y="697" />
              <mxPoint x="543" y="464" />
              <mxPoint x="543" y="414" />
            </Array>
          </mxGeometry>
        </mxCell>
        <mxCell id="PWmVj4gfuMv3pSqDBdnq-69" value="" style="endArrow=classic;html=1;rounded=0;exitX=1.007;exitY=0.146;exitDx=0;exitDy=0;exitPerimeter=0;entryX=0;entryY=0.5;entryDx=0;entryDy=0;" parent="1" target="PWmVj4gfuMv3pSqDBdnq-47" edge="1">
          <mxGeometry width="50" height="50" relative="1" as="geometry">
            <mxPoint x="406" y="711" as="sourcePoint" />
            <mxPoint x="461" y="711" as="targetPoint" />
            <Array as="points">
              <mxPoint x="557" y="711" />
              <mxPoint x="557" y="544" />
              <mxPoint x="557" y="494" />
            </Array>
          </mxGeometry>
        </mxCell>
        <mxCell id="PWmVj4gfuMv3pSqDBdnq-70" value="" style="endArrow=classic;html=1;rounded=0;exitX=1.007;exitY=0.146;exitDx=0;exitDy=0;exitPerimeter=0;entryX=0;entryY=0.5;entryDx=0;entryDy=0;" parent="1" target="PWmVj4gfuMv3pSqDBdnq-44" edge="1">
          <mxGeometry width="50" height="50" relative="1" as="geometry">
            <mxPoint x="406" y="725" as="sourcePoint" />
            <mxPoint x="461" y="725" as="targetPoint" />
            <Array as="points">
              <mxPoint x="567" y="725" />
              <mxPoint x="567" y="624" />
              <mxPoint x="567" y="574" />
            </Array>
          </mxGeometry>
        </mxCell>
        <mxCell id="PWmVj4gfuMv3pSqDBdnq-71" value="" style="endArrow=classic;html=1;rounded=0;exitX=1.007;exitY=0.146;exitDx=0;exitDy=0;exitPerimeter=0;entryX=0;entryY=0.5;entryDx=0;entryDy=0;" parent="1" target="PWmVj4gfuMv3pSqDBdnq-49" edge="1">
          <mxGeometry width="50" height="50" relative="1" as="geometry">
            <mxPoint x="406" y="739" as="sourcePoint" />
            <mxPoint x="461" y="739" as="targetPoint" />
            <Array as="points">
              <mxPoint x="576" y="739" />
              <mxPoint x="576" y="704" />
              <mxPoint x="576" y="655" />
            </Array>
          </mxGeometry>
        </mxCell>
        <mxCell id="PWmVj4gfuMv3pSqDBdnq-72" value="" style="endArrow=classic;html=1;rounded=0;exitX=1.007;exitY=0.146;exitDx=0;exitDy=0;exitPerimeter=0;entryX=0;entryY=0.5;entryDx=0;entryDy=0;" parent="1" target="PWmVj4gfuMv3pSqDBdnq-45" edge="1">
          <mxGeometry width="50" height="50" relative="1" as="geometry">
            <mxPoint x="406" y="753" as="sourcePoint" />
            <mxPoint x="461" y="753" as="targetPoint" />
            <Array as="points">
              <mxPoint x="456" y="753" />
              <mxPoint x="582" y="751" />
              <mxPoint x="582" y="737" />
            </Array>
          </mxGeometry>
        </mxCell>
        <mxCell id="CizXAPDU-vDg_hLWp3Cl-6" style="edgeStyle=orthogonalEdgeStyle;rounded=0;orthogonalLoop=1;jettySize=auto;html=1;entryX=0.75;entryY=1;entryDx=0;entryDy=0;" edge="1" parent="1" source="CizXAPDU-vDg_hLWp3Cl-1" target="PWmVj4gfuMv3pSqDBdnq-2">
          <mxGeometry relative="1" as="geometry">
            <Array as="points">
              <mxPoint x="460" y="272" />
              <mxPoint x="460" y="241" />
              <mxPoint x="459" y="241" />
            </Array>
          </mxGeometry>
        </mxCell>
        <mxCell id="CizXAPDU-vDg_hLWp3Cl-1" value="&lt;b&gt;&lt;font style=&quot;font-size: 11px;&quot;&gt;store&lt;/font&gt;&lt;/b&gt;" style="rounded=1;whiteSpace=wrap;html=1;absoluteArcSize=1;arcSize=14;strokeWidth=2;" vertex="1" parent="1">
          <mxGeometry x="314.5" y="253" width="118.5" height="37" as="geometry" />
        </mxCell>
        <mxCell id="CizXAPDU-vDg_hLWp3Cl-7" value="&lt;span style=&quot;font-size: 8px;&quot;&gt;data_encoded&lt;/span&gt;" style="text;html=1;strokeColor=none;fillColor=none;align=center;verticalAlign=middle;whiteSpace=wrap;rounded=0;" vertex="1" parent="1">
          <mxGeometry x="266" y="274" width="40" height="10" as="geometry" />
        </mxCell>
        <mxCell id="CizXAPDU-vDg_hLWp3Cl-8" value="&lt;span style=&quot;font-size: 8px;&quot;&gt;data_encoded&lt;/span&gt;" style="text;html=1;strokeColor=none;fillColor=none;align=center;verticalAlign=middle;whiteSpace=wrap;rounded=0;" vertex="1" parent="1">
          <mxGeometry x="440" y="274" width="40" height="10" as="geometry" />
        </mxCell>
        <mxCell id="CizXAPDU-vDg_hLWp3Cl-11" value="" style="endArrow=classic;html=1;rounded=0;exitX=1;exitY=0.25;exitDx=0;exitDy=0;fontStyle=0" edge="1" parent="1">
          <mxGeometry width="50" height="50" relative="1" as="geometry">
            <mxPoint x="342" y="198" as="sourcePoint" />
            <mxPoint x="410" y="198" as="targetPoint" />
          </mxGeometry>
        </mxCell>
        <mxCell id="CizXAPDU-vDg_hLWp3Cl-12" value="&lt;font style=&quot;font-size: 8px;&quot;&gt;N&lt;/font&gt;" style="text;html=1;strokeColor=none;fillColor=none;align=center;verticalAlign=middle;whiteSpace=wrap;rounded=0;fontStyle=0" vertex="1" parent="1">
          <mxGeometry x="369" y="187" width="10.5" height="10" as="geometry" />
        </mxCell>
        <mxCell id="CizXAPDU-vDg_hLWp3Cl-14" value="&lt;font style=&quot;font-size: 8px;&quot;&gt;n&lt;/font&gt;" style="text;html=1;strokeColor=none;fillColor=none;align=center;verticalAlign=middle;whiteSpace=wrap;rounded=0;fontStyle=0" vertex="1" parent="1">
          <mxGeometry x="369" y="174" width="10.5" height="10" as="geometry" />
        </mxCell>
        <mxCell id="CizXAPDU-vDg_hLWp3Cl-19" value="" style="endArrow=classic;html=1;rounded=0;exitX=1;exitY=0.25;exitDx=0;exitDy=0;" edge="1" parent="1">
          <mxGeometry width="50" height="50" relative="1" as="geometry">
            <mxPoint x="343" y="164" as="sourcePoint" />
            <mxPoint x="411" y="164" as="targetPoint" />
          </mxGeometry>
        </mxCell>
        <mxCell id="CizXAPDU-vDg_hLWp3Cl-20" value="" style="endArrow=classic;html=1;rounded=0;exitX=1;exitY=0.25;exitDx=0;exitDy=0;" edge="1" parent="1">
          <mxGeometry width="50" height="50" relative="1" as="geometry">
            <mxPoint x="342" y="176" as="sourcePoint" />
            <mxPoint x="410" y="176" as="targetPoint" />
          </mxGeometry>
        </mxCell>
        <mxCell id="CizXAPDU-vDg_hLWp3Cl-21" value="&lt;font style=&quot;font-size: 8px;&quot;&gt;Length&lt;/font&gt;" style="text;html=1;strokeColor=none;fillColor=none;align=center;verticalAlign=middle;whiteSpace=wrap;rounded=0;" vertex="1" parent="1">
          <mxGeometry x="369" y="165" width="10.5" height="10" as="geometry" />
        </mxCell>
        <mxCell id="CizXAPDU-vDg_hLWp3Cl-22" value="&lt;span style=&quot;font-size: 8px;&quot;&gt;codeword&lt;/span&gt;" style="text;html=1;strokeColor=none;fillColor=none;align=center;verticalAlign=middle;whiteSpace=wrap;rounded=0;" vertex="1" parent="1">
          <mxGeometry x="369" y="153" width="10.5" height="10" as="geometry" />
        </mxCell>
        <mxCell id="CizXAPDU-vDg_hLWp3Cl-23" value="" style="verticalLabelPosition=bottom;verticalAlign=top;html=1;strokeWidth=2;shape=mxgraph.arrows2.arrow;dy=0.6;dx=40;notch=0;" vertex="1" parent="1">
          <mxGeometry x="620" y="840" width="219" height="55" as="geometry" />
        </mxCell>
        <mxCell id="CizXAPDU-vDg_hLWp3Cl-24" value="&lt;b&gt;Codeword&lt;/b&gt;" style="text;html=1;strokeColor=none;fillColor=none;align=center;verticalAlign=middle;whiteSpace=wrap;rounded=0;" vertex="1" parent="1">
          <mxGeometry x="620" y="855" width="198" height="23" as="geometry" />
        </mxCell>
        <mxCell id="CizXAPDU-vDg_hLWp3Cl-25" value="" style="verticalLabelPosition=bottom;verticalAlign=top;html=1;strokeWidth=2;shape=mxgraph.arrows2.arrow;dy=0.6;dx=40;notch=0;" vertex="1" parent="1">
          <mxGeometry x="620" y="774" width="219" height="55" as="geometry" />
        </mxCell>
        <mxCell id="CizXAPDU-vDg_hLWp3Cl-26" value="&lt;b&gt;Length&lt;/b&gt;" style="text;html=1;strokeColor=none;fillColor=none;align=center;verticalAlign=middle;whiteSpace=wrap;rounded=0;" vertex="1" parent="1">
          <mxGeometry x="620" y="790" width="198" height="23" as="geometry" />
        </mxCell>
        <mxCell id="CizXAPDU-vDg_hLWp3Cl-27" value="" style="rounded=1;whiteSpace=wrap;html=1;absoluteArcSize=1;arcSize=14;strokeWidth=2;dashed=1;" vertex="1" parent="1">
          <mxGeometry x="1156" y="62" width="261" height="209" as="geometry" />
        </mxCell>
        <mxCell id="CizXAPDU-vDg_hLWp3Cl-72" style="edgeStyle=orthogonalEdgeStyle;rounded=0;orthogonalLoop=1;jettySize=auto;html=1;entryX=0;entryY=0.5;entryDx=0;entryDy=0;" edge="1" parent="1" source="CizXAPDU-vDg_hLWp3Cl-28" target="CizXAPDU-vDg_hLWp3Cl-49">
          <mxGeometry relative="1" as="geometry" />
        </mxCell>
        <mxCell id="CizXAPDU-vDg_hLWp3Cl-28" value="" style="verticalLabelPosition=bottom;verticalAlign=top;html=1;strokeWidth=2;shape=mxgraph.arrows2.arrow;dy=0.6;dx=40;notch=0;" vertex="1" parent="1">
          <mxGeometry x="936" y="77" width="219" height="55" as="geometry" />
        </mxCell>
        <mxCell id="CizXAPDU-vDg_hLWp3Cl-70" style="edgeStyle=orthogonalEdgeStyle;rounded=0;orthogonalLoop=1;jettySize=auto;html=1;entryX=0;entryY=0.5;entryDx=0;entryDy=0;" edge="1" parent="1" source="CizXAPDU-vDg_hLWp3Cl-29" target="CizXAPDU-vDg_hLWp3Cl-45">
          <mxGeometry relative="1" as="geometry" />
        </mxCell>
        <mxCell id="CizXAPDU-vDg_hLWp3Cl-29" value="" style="verticalLabelPosition=bottom;verticalAlign=top;html=1;strokeWidth=2;shape=mxgraph.arrows2.arrow;dy=0.6;dx=40;notch=0;" vertex="1" parent="1">
          <mxGeometry x="936" y="202" width="219" height="55" as="geometry" />
        </mxCell>
        <mxCell id="CizXAPDU-vDg_hLWp3Cl-74" style="edgeStyle=orthogonalEdgeStyle;rounded=0;orthogonalLoop=1;jettySize=auto;html=1;entryX=-0.005;entryY=0.612;entryDx=0;entryDy=0;entryPerimeter=0;" edge="1" parent="1" source="CizXAPDU-vDg_hLWp3Cl-30" target="CizXAPDU-vDg_hLWp3Cl-51">
          <mxGeometry relative="1" as="geometry" />
        </mxCell>
        <mxCell id="CizXAPDU-vDg_hLWp3Cl-30" value="" style="verticalLabelPosition=bottom;verticalAlign=top;html=1;strokeWidth=2;shape=mxgraph.arrows2.arrow;dy=0.6;dx=40;notch=0;" vertex="1" parent="1">
          <mxGeometry x="936" y="139" width="219" height="55" as="geometry" />
        </mxCell>
        <mxCell id="CizXAPDU-vDg_hLWp3Cl-31" value="&lt;b&gt;Code length&lt;/b&gt;" style="text;html=1;strokeColor=none;fillColor=none;align=center;verticalAlign=middle;whiteSpace=wrap;rounded=0;" vertex="1" parent="1">
          <mxGeometry x="936" y="93" width="198" height="23" as="geometry" />
        </mxCell>
        <mxCell id="CizXAPDU-vDg_hLWp3Cl-32" value="&lt;b&gt;Codeword&lt;/b&gt;" style="text;html=1;strokeColor=none;fillColor=none;align=center;verticalAlign=middle;whiteSpace=wrap;rounded=0;" vertex="1" parent="1">
          <mxGeometry x="936" y="218" width="198" height="23" as="geometry" />
        </mxCell>
        <mxCell id="CizXAPDU-vDg_hLWp3Cl-33" value="&lt;b&gt;data_encoded&lt;/b&gt;" style="text;html=1;strokeColor=none;fillColor=none;align=center;verticalAlign=middle;whiteSpace=wrap;rounded=0;" vertex="1" parent="1">
          <mxGeometry x="936" y="155" width="198" height="23" as="geometry" />
        </mxCell>
        <mxCell id="CizXAPDU-vDg_hLWp3Cl-75" style="edgeStyle=orthogonalEdgeStyle;rounded=0;orthogonalLoop=1;jettySize=auto;html=1;entryX=0.5;entryY=1;entryDx=0;entryDy=0;" edge="1" parent="1" source="CizXAPDU-vDg_hLWp3Cl-45" target="CizXAPDU-vDg_hLWp3Cl-51">
          <mxGeometry relative="1" as="geometry" />
        </mxCell>
        <mxCell id="CizXAPDU-vDg_hLWp3Cl-45" value="&lt;b style=&quot;font-size: 7px;&quot;&gt;CODEWORD&lt;br&gt;TRANSMIT&lt;br&gt;&lt;/b&gt;" style="rounded=1;whiteSpace=wrap;html=1;absoluteArcSize=1;arcSize=14;strokeWidth=2;" vertex="1" parent="1">
          <mxGeometry x="1207" y="195" width="69" height="69" as="geometry" />
        </mxCell>
        <mxCell id="CizXAPDU-vDg_hLWp3Cl-48" style="edgeStyle=orthogonalEdgeStyle;rounded=0;orthogonalLoop=1;jettySize=auto;html=1;entryX=0.5;entryY=0;entryDx=0;entryDy=0;" edge="1" parent="1" source="CizXAPDU-vDg_hLWp3Cl-49" target="CizXAPDU-vDg_hLWp3Cl-51">
          <mxGeometry relative="1" as="geometry">
            <Array as="points">
              <mxPoint x="1296" y="105" />
              <mxPoint x="1350" y="105" />
            </Array>
          </mxGeometry>
        </mxCell>
        <mxCell id="CizXAPDU-vDg_hLWp3Cl-49" value="&lt;b style=&quot;border-color: var(--border-color); font-size: 7px;&quot;&gt;CODE LENGTH&lt;br style=&quot;border-color: var(--border-color);&quot;&gt;TRANSMIT&lt;/b&gt;&lt;b style=&quot;font-size: 7px;&quot;&gt;&lt;br&gt;&lt;/b&gt;" style="rounded=1;whiteSpace=wrap;html=1;absoluteArcSize=1;arcSize=14;strokeWidth=2;" vertex="1" parent="1">
          <mxGeometry x="1207" y="70" width="69" height="69" as="geometry" />
        </mxCell>
        <mxCell id="CizXAPDU-vDg_hLWp3Cl-51" value="&lt;b style=&quot;font-size: 7px;&quot;&gt;DECODER&lt;br&gt;&lt;/b&gt;" style="rounded=1;whiteSpace=wrap;html=1;absoluteArcSize=1;arcSize=14;strokeWidth=2;" vertex="1" parent="1">
          <mxGeometry x="1315" y="123.5" width="69" height="69" as="geometry" />
        </mxCell>
        <mxCell id="CizXAPDU-vDg_hLWp3Cl-76" value="" style="verticalLabelPosition=bottom;verticalAlign=top;html=1;strokeWidth=2;shape=mxgraph.arrows2.arrow;dy=0.6;dx=40;notch=0;" vertex="1" parent="1">
          <mxGeometry x="1417" y="80" width="219" height="55" as="geometry" />
        </mxCell>
        <mxCell id="CizXAPDU-vDg_hLWp3Cl-77" value="" style="verticalLabelPosition=bottom;verticalAlign=top;html=1;strokeWidth=2;shape=mxgraph.arrows2.arrow;dy=0.6;dx=40;notch=0;" vertex="1" parent="1">
          <mxGeometry x="1417" y="189" width="219" height="55" as="geometry" />
        </mxCell>
        <mxCell id="CizXAPDU-vDg_hLWp3Cl-78" value="&lt;b&gt;done_o&lt;/b&gt;" style="text;html=1;strokeColor=none;fillColor=none;align=center;verticalAlign=middle;whiteSpace=wrap;rounded=0;" vertex="1" parent="1">
          <mxGeometry x="1417" y="96" width="198" height="23" as="geometry" />
        </mxCell>
        <mxCell id="CizXAPDU-vDg_hLWp3Cl-79" value="&lt;b&gt;character&lt;/b&gt;" style="text;html=1;strokeColor=none;fillColor=none;align=center;verticalAlign=middle;whiteSpace=wrap;rounded=0;" vertex="1" parent="1">
          <mxGeometry x="1417" y="205" width="198" height="23" as="geometry" />
        </mxCell>
        <mxCell id="CizXAPDU-vDg_hLWp3Cl-80" style="edgeStyle=orthogonalEdgeStyle;rounded=0;orthogonalLoop=1;jettySize=auto;html=1;entryX=0;entryY=0.5;entryDx=0;entryDy=0;exitX=1;exitY=0.25;exitDx=0;exitDy=0;" edge="1" parent="1">
          <mxGeometry relative="1" as="geometry">
            <mxPoint x="1384.97" y="146.97" as="sourcePoint" />
            <mxPoint x="1416.97" y="108.97" as="targetPoint" />
            <Array as="points">
              <mxPoint x="1400.97" y="147.97" />
              <mxPoint x="1400.97" y="108.97" />
            </Array>
          </mxGeometry>
        </mxCell>
        <mxCell id="CizXAPDU-vDg_hLWp3Cl-81" style="edgeStyle=orthogonalEdgeStyle;rounded=0;orthogonalLoop=1;jettySize=auto;html=1;entryX=0;entryY=0.5;entryDx=0;entryDy=0;" edge="1" parent="1">
          <mxGeometry relative="1" as="geometry">
            <Array as="points">
              <mxPoint x="1399.97" y="175.97" />
              <mxPoint x="1399.97" y="217.97" />
            </Array>
            <mxPoint x="1384.97" y="175.97" as="sourcePoint" />
            <mxPoint x="1416.97" y="216.97" as="targetPoint" />
          </mxGeometry>
        </mxCell>
      </root>
    </mxGraphModel>
  </diagram>
</mxfile>
